<svg xmlns="http://www.w3.org/2000/svg" viewBox="0 0 16 16" width="64" height="64" shape-rendering="crispEdges"><rect x="7" y="2" width="2" height="1" fill="#7BC24A"/><rect x="2" y="3" width="2" height="1" fill="#7BC24A"/><rect x="7" y="3" width="2" height="1" fill="#7BC24A"/><rect x="12" y="3" width="2" height="1" fill="#7BC24A"/><rect x="2" y="4" width="2" height="1" fill="#7BC24A"/><rect x="7" y="4" width="2" height="1" fill="#7BC24A"/><rect x="12" y="4" width="2" height="1" fill="#7BC24A"/><rect x="2" y="5" width="3" height="1" fill="#7BC24A"/><rect x="7" y="5" width="2" height="1" fill="#7BC24A"/><rect x="11" y="5" width="3" height="1" fill="#7BC24A"/><rect x="3" y="6" width="10" height="1" fill="#7BC24A"/><rect x="5" y="7" width="6" height="1" fill="#7BC24A"/><rect x="5" y="8" width="6" height="1" fill="#7BC24A"/><rect x="4" y="9" width="8" height="1" fill="#E8574A"/><rect x="4" y="10" width="1" height="1" fill="#A82C22"/><rect x="5" y="10" width="6" height="1" fill="#E8574A"/><rect x="11" y="10" width="1" height="1" fill="#A82C22"/><rect x="4" y="11" width="1" height="1" fill="#A82C22"/><rect x="5" y="11" width="6" height="1" fill="#E8574A"/><rect x="11" y="11" width="1" height="1" fill="#A82C22"/><rect x="5" y="12" width="6" height="1" fill="#A82C22"/></svg>
